<?xml version="1.0" encoding="iso-8859-1"?>
<!DOCTYPE svg PUBLIC "-//W3C//DTD SVG 1.1//EN" "http://www.w3.org/Graphics/SVG/1.1/DTD/svg11.dtd">
<svg version="1.1" id="Layer_1" xmlns="http://www.w3.org/2000/svg" xmlns:xlink="http://www.w3.org/1999/xlink" x="0px" y="0px"
	 width="188.778px" height="65.392px" viewBox="0 0 188.778 65.392" enable-background="new 0 0 188.778 65.392"
	 xml:space="preserve">
<g fill="#e6e4e3">
	<path d="M14.825,9.801h-1.144c-0.088,0-0.152-0.072-0.152-0.152V8.777c0-0.08,0.064-0.152,0.152-0.152h3.55
		c0.088,0,0.152,0.072,0.152,0.152v0.872c0,0.08-0.064,0.152-0.152,0.152h-1.144v4.27c0,0.08-0.072,0.152-0.152,0.152h-0.959
		c-0.08,0-0.152-0.072-0.152-0.152V9.801z"/>
	<path d="M19.786,8.777c0-0.08,0.072-0.152,0.152-0.152h0.952c0.088,0,0.152,0.072,0.152,0.152v2.015h2.287V8.777
		c0-0.08,0.064-0.152,0.152-0.152h0.952c0.08,0,0.152,0.072,0.152,0.152v5.293c0,0.08-0.072,0.152-0.152,0.152h-0.952
		c-0.088,0-0.152-0.072-0.152-0.152v-2.103h-2.287v2.103c0,0.08-0.064,0.152-0.152,0.152h-0.952c-0.08,0-0.152-0.072-0.152-0.152
		V8.777z"/>
	<path d="M27.562,8.777c0-0.08,0.064-0.152,0.152-0.152h3.311c0.088,0,0.152,0.072,0.152,0.152v0.872
		c0,0.08-0.064,0.152-0.152,0.152h-2.215v0.991h1.823c0.08,0,0.152,0.072,0.152,0.152v0.872c0,0.088-0.072,0.152-0.152,0.152h-1.823
		v1.08h2.215c0.088,0,0.152,0.072,0.152,0.152v0.872c0,0.08-0.064,0.152-0.152,0.152h-3.311c-0.088,0-0.152-0.072-0.152-0.152V8.777
		z"/>
	<path d="M37.929,9.801h-1.144c-0.088,0-0.152-0.072-0.152-0.152V8.777c0-0.08,0.064-0.152,0.152-0.152h3.55
		c0.088,0,0.152,0.072,0.152,0.152v0.872c0,0.08-0.064,0.152-0.152,0.152h-1.144v4.27c0,0.08-0.072,0.152-0.152,0.152h-0.959
		c-0.08,0-0.152-0.072-0.152-0.152V9.801z"/>
	<path d="M41.882,14.014l2.502-5.381c0.024-0.048,0.08-0.088,0.136-0.088h0.08c0.056,0,0.112,0.04,0.136,0.088l2.503,5.381
		c0.048,0.104-0.016,0.208-0.136,0.208h-0.887c-0.144,0-0.208-0.048-0.28-0.2l-0.288-0.632h-2.175l-0.288,0.64
		c-0.04,0.096-0.128,0.192-0.288,0.192h-0.879C41.897,14.222,41.833,14.118,41.882,14.014z M45.168,12.303l-0.608-1.319h-0.008
		l-0.6,1.319H45.168z"/>
	<path d="M49.497,8.777c0-0.08,0.064-0.152,0.152-0.152h0.952c0.08,0,0.152,0.072,0.152,0.152v4.27h1.903
		c0.088,0,0.152,0.072,0.152,0.152v0.872c0,0.08-0.064,0.152-0.152,0.152h-3.006c-0.088,0-0.152-0.072-0.152-0.152V8.777z"/>
	<path d="M55.185,8.777c0-0.08,0.064-0.152,0.152-0.152h3.311c0.088,0,0.152,0.072,0.152,0.152v0.872
		c0,0.08-0.064,0.152-0.152,0.152h-2.215v0.991h1.823c0.08,0,0.152,0.072,0.152,0.152v0.872c0,0.088-0.072,0.152-0.152,0.152h-1.823
		v1.08h2.215c0.088,0,0.152,0.072,0.152,0.152v0.872c0,0.08-0.064,0.152-0.152,0.152h-3.311c-0.088,0-0.152-0.072-0.152-0.152V8.777
		z"/>
	<path d="M67.296,8.545c1.599,0,2.878,1.287,2.878,2.886s-1.279,2.871-2.878,2.871s-2.871-1.271-2.871-2.871
		S65.697,8.545,67.296,8.545z M67.296,13.023c0.879,0,1.599-0.72,1.599-1.591c0-0.879-0.72-1.607-1.599-1.607
		c-0.872,0-1.591,0.728-1.591,1.607C65.705,12.303,66.424,13.023,67.296,13.023z"/>
	<path d="M72.745,8.777c0-0.08,0.064-0.152,0.152-0.152h3.311c0.088,0,0.152,0.072,0.152,0.152v0.872
		c0,0.08-0.064,0.152-0.152,0.152h-2.215v1.151h1.823c0.08,0,0.152,0.072,0.152,0.152v0.872c0,0.08-0.072,0.152-0.152,0.152h-1.823
		v1.943c0,0.08-0.072,0.152-0.152,0.152h-0.944c-0.088,0-0.152-0.072-0.152-0.152V8.777z"/>
	<path d="M82.928,9.801h-1.144c-0.088,0-0.152-0.072-0.152-0.152V8.777c0-0.08,0.064-0.152,0.152-0.152h3.55
		c0.088,0,0.152,0.072,0.152,0.152v0.872c0,0.08-0.064,0.152-0.152,0.152h-1.144v4.27c0,0.08-0.072,0.152-0.152,0.152H83.08
		c-0.08,0-0.152-0.072-0.152-0.152V9.801z"/>
	<path d="M87.881,8.777c0-0.08,0.072-0.152,0.152-0.152h0.952c0.088,0,0.152,0.072,0.152,0.152v2.015h2.287V8.777
		c0-0.08,0.064-0.152,0.152-0.152h0.951c0.08,0,0.152,0.072,0.152,0.152v5.293c0,0.08-0.072,0.152-0.152,0.152h-0.951
		c-0.088,0-0.152-0.072-0.152-0.152v-2.103h-2.287v2.103c0,0.08-0.064,0.152-0.152,0.152h-0.952c-0.08,0-0.152-0.072-0.152-0.152
		V8.777z"/>
	<path d="M95.656,8.777c0-0.08,0.064-0.152,0.152-0.152h3.31c0.088,0,0.152,0.072,0.152,0.152v0.872c0,0.08-0.064,0.152-0.152,0.152
		h-2.215v0.991h1.823c0.08,0,0.152,0.072,0.152,0.152v0.872c0,0.088-0.072,0.152-0.152,0.152h-1.823v1.08h2.215
		c0.088,0,0.152,0.072,0.152,0.152v0.872c0,0.08-0.064,0.152-0.152,0.152h-3.31c-0.088,0-0.152-0.072-0.152-0.152V8.777z"/>
</g>
<g fill="#e6e4e3">
	<path d="M20.382,29.019l-1.416,8.064c-0.016,0.112-0.08,0.168-0.192,0.168h-1.056c-0.112,0-0.176-0.056-0.192-0.168l-0.42-2.987
		h-0.012l-0.42,2.987c-0.016,0.112-0.08,0.168-0.192,0.168h-1.056c-0.112,0-0.176-0.056-0.192-0.168l-1.416-8.064
		c-0.016-0.112,0.032-0.168,0.144-0.168h1.296c0.104,0,0.164,0.056,0.18,0.168l0.54,4.896h0.048l0.408-4.896
		c0.016-0.112,0.076-0.168,0.18-0.168h0.972c0.104,0,0.164,0.056,0.18,0.168l0.408,4.896h0.048l0.54-4.896
		c0.016-0.112,0.076-0.168,0.18-0.168h1.296C20.351,28.851,20.398,28.907,20.382,29.019z"/>
	<path d="M26.754,29.019v8.064c0,0.112-0.056,0.168-0.168,0.168h-1.068c-0.112,0-0.168-0.056-0.168-0.168V33.65h-0.792v3.433
		c0,0.112-0.056,0.168-0.168,0.168h-1.068c-0.112,0-0.168-0.056-0.168-0.168v-8.064c0-0.112,0.056-0.168,0.168-0.168h1.068
		c0.112,0,0.168,0.056,0.168,0.168v3.228h0.792v-3.228c0-0.112,0.056-0.168,0.168-0.168h1.068
		C26.698,28.851,26.754,28.907,26.754,29.019z"/>
	<path d="M31.386,37.083c0,0.112-0.056,0.168-0.168,0.168H30.15c-0.112,0-0.168-0.056-0.168-0.168v-8.064
		c0-0.112,0.056-0.168,0.168-0.168h1.068c0.112,0,0.168,0.056,0.168,0.168V37.083z"/>
	<path d="M37.002,28.887c0.184,0.08,0.344,0.188,0.48,0.324c0.136,0.136,0.244,0.296,0.324,0.48c0.08,0.184,0.12,0.38,0.12,0.588
		v0.456c0,0.112-0.052,0.184-0.156,0.216l-1.092,0.288c-0.104,0.032-0.156-0.008-0.156-0.12v-0.78c0-0.08-0.028-0.148-0.084-0.204
		c-0.056-0.056-0.124-0.084-0.204-0.084h-0.096c-0.08,0-0.148,0.028-0.204,0.084c-0.056,0.056-0.084,0.125-0.084,0.204v1.092
		c0.008,0.088,0.024,0.164,0.048,0.228s0.068,0.128,0.132,0.192l1.572,1.176c0.128,0.112,0.21,0.226,0.246,0.342
		c0.036,0.115,0.062,0.246,0.078,0.39v2.064c0,0.208-0.04,0.403-0.12,0.588c-0.08,0.184-0.188,0.344-0.324,0.479
		c-0.136,0.137-0.296,0.244-0.48,0.324s-0.38,0.12-0.588,0.12h-0.456c-0.208,0-0.404-0.04-0.588-0.12
		c-0.184-0.08-0.344-0.188-0.48-0.324c-0.136-0.136-0.244-0.296-0.324-0.479c-0.08-0.185-0.12-0.38-0.12-0.588V34.67
		c0-0.112,0.052-0.184,0.156-0.216l1.092-0.288c0.104-0.032,0.156,0.008,0.156,0.12v1.476c0,0.08,0.028,0.148,0.084,0.204
		c0.056,0.057,0.124,0.084,0.204,0.084h0.096c0.08,0,0.148-0.027,0.204-0.084c0.056-0.056,0.084-0.124,0.084-0.204v-1.583
		c-0.008-0.104-0.024-0.197-0.048-0.277c-0.024-0.079-0.072-0.151-0.144-0.215l-1.548-1.188c-0.12-0.112-0.206-0.224-0.258-0.336
		c-0.052-0.112-0.078-0.26-0.078-0.444v-1.44c0-0.208,0.04-0.404,0.12-0.588s0.188-0.344,0.324-0.48
		c0.136-0.136,0.296-0.244,0.48-0.324c0.184-0.08,0.38-0.12,0.588-0.12h0.456C36.622,28.767,36.818,28.807,37.002,28.887z"/>
	<path d="M43.986,29.019v1.068c0,0.112-0.056,0.168-0.168,0.168h-0.852v6.828c0,0.112-0.056,0.168-0.168,0.168H41.73
		c-0.04,0-0.078-0.016-0.114-0.048c-0.036-0.032-0.054-0.072-0.054-0.12v-6.828h-0.84c-0.112,0-0.168-0.056-0.168-0.168v-1.068
		c0-0.112,0.056-0.168,0.168-0.168h3.096C43.93,28.851,43.986,28.907,43.986,29.019z"/>
	<path d="M50.094,36.014v1.068c0,0.112-0.056,0.168-0.168,0.168h-1.62h-0.024H48.27h-1.068c-0.112,0-0.168-0.056-0.168-0.168v-8.064
		c0-0.112,0.056-0.168,0.168-0.168h1.068c0.112,0,0.168,0.056,0.168,0.168v6.828h1.488C50.038,35.846,50.094,35.903,50.094,36.014z"
		/>
	<path d="M54.498,37.083c0,0.112-0.056,0.168-0.168,0.168h-1.068c-0.112,0-0.168-0.056-0.168-0.168v-8.064
		c0-0.112,0.056-0.168,0.168-0.168h1.068c0.112,0,0.168,0.056,0.168,0.168V37.083z"/>
	<path d="M61.578,29.019v8.064c0,0.112-0.056,0.168-0.168,0.168h-0.768c-0.048,0-0.094-0.016-0.138-0.048
		c-0.044-0.032-0.074-0.068-0.09-0.108l-1.272-3.972v3.96c0,0.112-0.056,0.168-0.168,0.168h-1.068c-0.112,0-0.168-0.056-0.168-0.168
		v-8.064c0-0.112,0.056-0.168,0.168-0.168h0.792c0.048,0,0.094,0.016,0.138,0.048c0.043,0.032,0.074,0.068,0.09,0.108l1.248,3.852
		v-3.84c0-0.112,0.056-0.168,0.168-0.168h1.068C61.521,28.851,61.578,28.907,61.578,29.019z"/>
	<path d="M67.253,28.887c0.184,0.08,0.344,0.188,0.48,0.324c0.136,0.136,0.244,0.296,0.324,0.48s0.12,0.38,0.12,0.588v0.384
		c0,0.112-0.052,0.184-0.156,0.216l-1.092,0.396c-0.104,0.032-0.156-0.008-0.156-0.12v-0.816c0-0.08-0.028-0.148-0.084-0.204
		c-0.056-0.056-0.124-0.084-0.204-0.084h-0.096c-0.08,0-0.148,0.028-0.204,0.084c-0.056,0.056-0.084,0.125-0.084,0.204v5.424
		c0,0.08,0.028,0.148,0.084,0.204c0.056,0.057,0.124,0.084,0.204,0.084h0.096c0.08,0,0.148-0.027,0.204-0.084
		c0.056-0.056,0.084-0.124,0.084-0.204v-2.136h-0.336v-1.368h1.572c0.112,0,0.168,0.056,0.168,0.168v3.396
		c0,0.208-0.04,0.403-0.12,0.588c-0.08,0.184-0.188,0.344-0.324,0.479c-0.136,0.137-0.296,0.244-0.48,0.324s-0.38,0.12-0.588,0.12
		h-0.456c-0.208,0-0.404-0.04-0.588-0.12c-0.185-0.08-0.344-0.188-0.48-0.324c-0.136-0.136-0.244-0.296-0.324-0.479
		c-0.08-0.185-0.12-0.38-0.12-0.588v-5.544c0-0.208,0.04-0.404,0.12-0.588s0.188-0.344,0.324-0.48
		c0.136-0.136,0.296-0.244,0.48-0.324c0.184-0.08,0.379-0.12,0.588-0.12h0.456C66.873,28.767,67.069,28.807,67.253,28.887z"/>
	<path d="M81.197,29.019l-1.416,8.064c-0.016,0.112-0.08,0.168-0.192,0.168h-1.056c-0.112,0-0.176-0.056-0.192-0.168l-0.42-2.987
		H77.91l-0.42,2.987c-0.016,0.112-0.08,0.168-0.192,0.168h-1.056c-0.112,0-0.176-0.056-0.192-0.168l-1.416-8.064
		c-0.016-0.112,0.032-0.168,0.144-0.168h1.296c0.104,0,0.164,0.056,0.18,0.168l0.54,4.896h0.048l0.408-4.896
		c0.016-0.112,0.076-0.168,0.18-0.168h0.972c0.104,0,0.164,0.056,0.18,0.168l0.408,4.896h0.048l0.54-4.896
		c0.016-0.112,0.076-0.168,0.18-0.168h1.296C81.166,28.851,81.213,28.907,81.197,29.019z"/>
	<path d="M87.269,35.823c0,0.208-0.04,0.403-0.12,0.588c-0.08,0.184-0.188,0.344-0.324,0.479c-0.136,0.137-0.296,0.244-0.48,0.324
		s-0.38,0.12-0.588,0.12h-0.456c-0.208,0-0.404-0.04-0.588-0.12c-0.185-0.08-0.344-0.188-0.48-0.324
		c-0.136-0.136-0.244-0.296-0.324-0.479c-0.08-0.185-0.12-0.38-0.12-0.588v-5.544c0-0.208,0.04-0.404,0.12-0.588
		s0.188-0.344,0.324-0.48c0.136-0.136,0.296-0.244,0.48-0.324c0.184-0.08,0.379-0.12,0.588-0.12h0.456
		c0.208,0,0.404,0.04,0.588,0.12c0.184,0.08,0.344,0.188,0.48,0.324c0.136,0.136,0.244,0.296,0.324,0.48s0.12,0.38,0.12,0.588
		V35.823z M85.865,30.338c0-0.08-0.028-0.148-0.084-0.204c-0.056-0.056-0.124-0.084-0.204-0.084h-0.096
		c-0.08,0-0.148,0.028-0.204,0.084c-0.056,0.056-0.084,0.125-0.084,0.204v5.424c0,0.08,0.028,0.148,0.084,0.204
		c0.056,0.057,0.124,0.084,0.204,0.084h0.096c0.08,0,0.148-0.027,0.204-0.084c0.056-0.056,0.084-0.124,0.084-0.204V30.338z"/>
	<path d="M93.509,36.014v1.068c0,0.112-0.056,0.168-0.168,0.168h-1.62h-0.024h-0.012h-1.068c-0.112,0-0.168-0.056-0.168-0.168
		v-8.064c0-0.112,0.056-0.168,0.168-0.168h1.068c0.112,0,0.168,0.056,0.168,0.168v6.828h1.488
		C93.453,35.846,93.509,35.903,93.509,36.014z"/>
	<path d="M99.449,29.019v1.068c0,0.112-0.057,0.168-0.169,0.168h-1.367v1.728h1.188c0.112,0,0.168,0.056,0.168,0.168v1.068
		c0,0.112-0.056,0.168-0.168,0.168h-1.188v3.696c0,0.112-0.057,0.168-0.168,0.168h-1.068c-0.112,0-0.168-0.056-0.168-0.168v-8.064
		c0-0.112,0.056-0.168,0.168-0.168h2.604C99.393,28.851,99.449,28.907,99.449,29.019z"/>
</g>
<rect x="4.387" y="21.695" fill="none" stroke="#e6e4e3" stroke-miterlimit="10" width="104.806" height="22.395"/>
<g fill="#e6e4e3">
	<rect x="4.387" y="0.499" fill="none" stroke="#e6e4e3" stroke-miterlimit="10" width="104.806" height="21.195"/>

		<rect x="109.192" y="0.5" fill="none" stroke="#e6e4e3" stroke-width="0.993" stroke-miterlimit="10" width="79.089" height="43.59"/>
	<path d="M173.021,7.871c1.737,0,3.024,0.539,4.205,1.616c0.157,0.14,0.157,0.348,0.019,0.486l-1.355,1.408
		c-0.122,0.122-0.313,0.122-0.434,0c-0.645-0.573-1.495-0.885-2.347-0.885c-1.964,0-3.405,1.632-3.405,3.579
		c0,1.929,1.459,3.527,3.423,3.527c0.815,0,1.703-0.295,2.329-0.834c0.121-0.104,0.346-0.104,0.451,0.018l1.354,1.442
		c0.122,0.122,0.105,0.348-0.017,0.47c-1.182,1.146-2.678,1.685-4.224,1.685c-3.475,0-6.271-2.764-6.271-6.238
		C166.749,10.67,169.546,7.871,173.021,7.871"/>
	<path d="M172.986,23.007c3.476,0,6.256,2.798,6.256,6.273s-2.78,6.238-6.256,6.238c-3.475,0-6.237-2.763-6.237-6.238
		S169.512,23.007,172.986,23.007 M172.986,32.738c1.911,0,3.476-1.563,3.476-3.458c0-1.911-1.564-3.493-3.476-3.493
		c-1.895,0-3.458,1.582-3.458,3.493C169.528,31.175,171.092,32.738,172.986,32.738"/>
	<path d="M120.826,9.186c-0.225-0.68,0.176-1.237,0.894-1.237h5.408c0.718,0,1.474,0.562,1.681,1.248l4.018,13.341
		c0.207,0.687,0.562,0.692,0.787,0.012l4.458-13.442c0.227-0.681,0.997-1.237,1.714-1.237h3.924c0.718,0,1.488,0.556,1.715,1.237
		l4.458,13.442c0.226,0.68,0.579,0.675,0.786-0.012l4.019-13.341c0.207-0.686,0.963-1.248,1.679-1.248h5.253
		c0.718,0,1.119,0.557,0.894,1.237l-8.329,25.095c-0.226,0.682-0.997,1.237-1.714,1.237h-4.002c-0.717,0-1.497-0.554-1.733-1.231
		l-4.654-13.297c-0.236-0.677-0.622-0.676-0.857,0.001l-4.619,13.296c-0.235,0.678-1.014,1.231-1.731,1.231h-4.002
		c-0.717,0-1.487-0.556-1.714-1.237L120.826,9.186z"/>
	<rect x="0.497" y="0.5" width="3.889" height="43.59"/>
	<rect x="0.497" y="0.5" fill="none" stroke="#e6e4e3" stroke-width="0.993" stroke-miterlimit="10" width="3.889" height="43.59"/>
</g>
</svg>
